
<!-- Made by gilbarbara: https://github.com/gilbarbara/logos -->
<svg width="50" height="50" viewBox="-0.097 0 50 50" xmlns="http://www.w3.org/2000/svg" preserveAspectRatio="xMidYMid">
	<path d="M24.862.007s14.654-.658 22.423 14.072h-23.67s-4.467-.144-8.283 5.275c-1.096 2.275-2.274 4.618-.952 9.235-1.905-3.227-10.112-17.518-10.112-17.518S10.057.589 24.861.007" fill="#EF3F36"/>
	<path d="M46.524 37.399s-6.762 13.023-23.396 12.379c2.055-3.556 11.838-20.498 11.838-20.498s2.364-3.795-.425-9.81c-1.418-2.089-2.864-4.275-7.522-5.44 3.747-.034 20.224 0 20.224 0s6.172 10.256-.719 23.368" fill="#FCD900"/>
	<path d="M3.302 37.501s-7.899-12.366.98-26.451c2.048 3.556 11.831 20.498 11.831 20.498s2.11 3.946 8.707 4.535c2.514-.185 5.131-.342 8.475-3.788-1.843 3.261-10.112 17.51-10.112 17.51s-11.975.219-19.881-12.304" fill="#61BC5B"/>
	<path d="m23.122 49.901 3.329-13.893s3.658-.288 6.728-3.652c-1.905 3.35-10.057 17.545-10.057 17.545" fill="#5AB055"/>
	<path d="M13.709 25.108c0-6.125 4.967-11.091 11.091-11.091s11.091 4.967 11.091 11.091c0 6.125-4.967 11.091-11.091 11.091-6.125-.007-11.091-4.967-11.091-11.091" fill="#FFF"/>
	<path d="M15.565 25.108a9.235 9.235 0 0 1 9.235-9.235 9.235 9.235 0 0 1 9.235 9.235 9.235 9.235 0 1 1-18.47 0" fill="url(#a)"/>
	<path d="m47.236 14.037-13.709 4.021s-2.069-3.035-6.515-4.021c3.857-.021 20.224 0 20.224 0" fill="#EACA05"/>
	<path d="M14.113 28.082c-1.925-3.336-9.845-17.011-9.845-17.011l10.153 10.043s-1.041 2.144-.651 5.213z" fill="#DF3A32"/>
</svg>
