<!-- Generator: Adobe Illustrator 19.0.0, SVG Export Plug-In . SVG Version: 6.00 Build 0)  -->
<!-- License: CC0. Made by SVG Repo: https://www.svgrepo.com/svg/183625/opera -->
<svg xmlns="http://www.w3.org/2000/svg" viewBox="0 0 50 50" xml:space="preserve" width="50" height="50">
	<path style="fill:#b4002b" d="M25.034 50c-3.02 0-5.839-.592-8.439-1.785-2.598-1.196-4.933-2.966-7.003-5.289-2.262-2.492-3.936-5.193-5.002-8.103-1.066-2.902-1.586-6.17-1.586-9.792s.52-6.887 1.586-9.79c1.065-2.907 2.74-5.61 5.002-8.103 2.092-2.342 4.432-4.13 7.034-5.338C19.23.599 22.036 0 25.034 0s5.807.599 8.405 1.802c2.6 1.208 4.945 2.996 7.032 5.338 2.242 2.473 3.902 5.159 4.955 8.054 1.056 2.89 1.569 6.175 1.569 9.839 0 3.663-.513 6.951-1.569 9.838-1.053 2.897-2.713 5.581-4.953 8.056-2.072 2.322-4.4 4.093-7.003 5.289Q29.566 50.002 25.034 50m0-3.229c3.393 0 5.554-1.296 6.772-3.811 1.306-2.684 2.045-8.564 2.045-17.929 0-9.36-.739-15.243-2.045-17.931-1.218-2.509-3.379-3.806-6.772-3.806-3.413 0-5.593 1.309-6.826 3.843-1.318 2.708-2.058 8.579-2.058 17.894 0 9.318.739 15.191 2.058 17.899 1.233 2.531 3.413 3.84 6.826 3.84"/>
</svg>
